PathFileType	4	(X/Y/Z)	RBDS025\RBDS025runT35.trc
DataRate	CameraRate	NumFrames	NumMarkers	Units	OrigDataRate	OrigDataStartFrame	OrigNumFrames
150.000000	150.000000	4	33	mm	150.000000	2250	4500
Frame#	Time	L.ASIS			L.Heel.Bottom			L.Heel.Lateral			L.Heel.Top			L.Iliac.Crest			L.MT1			L.MT5			L.PSIS			L.Shank.Bottom.Lateral			L.Shank.Bottom.Medial			L.Shank.Top.Lateral			L.Shank.Top.Medial			L.Thigh.Bottom.Lateral			L.Thigh.Bottom.Medial			L.Thigh.Top.Lateral			L.Thigh.Top.Medial			R.ASIS			R.ASY			R.Heel.Bottom			R.Heel.Lateral			R.Heel.Top			R.Iliac.Crest			R.MT1			R.MT5			R.PSIS			R.Shank.Bottom.Lateral			R.Shank.Bottom.Medial			R.Shank.Top.Lateral			R.Shank.Top.Medial			R.Thigh.Bottom.Lateral			R.Thigh.Bottom.Medial			R.Thigh.Top.Lateral			R.Thigh.Top.Medial			
		X1	Y1	Z1	X2	Y2	Z2	X3	Y3	Z3	X4	Y4	Z4	X5	Y5	Z5	X6	Y6	Z6	X7	Y7	Z7	X8	Y8	Z8	X9	Y9	Z9	X10	Y10	Z10	X11	Y11	Z11	X12	Y12	Z12	X13	Y13	Z13	X14	Y14	Z14	X15	Y15	Z15	X16	Y16	Z16	X17	Y17	Z17	X18	Y18	Z18	X19	Y19	Z19	X20	Y20	Z20	X21	Y21	Z21	X22	Y22	Z22	X23	Y23	Z23	X24	Y24	Z24	X25	Y25	Z25	X26	Y26	Z26	X27	Y27	Z27	X28	Y28	Z28	X29	Y29	Z29	X30	Y30	Z30	X31	Y31	Z31	X32	Y32	Z32	X33	Y33	Z33	

2251	15	2194.393271378932	921.9155722300703	839.0263438836909	1671.329602456226	135.9005967205456	916.1279805594208	1698.467386033377	137.0281067410588	867.9777838504981	1701.70869093676	168.0811660169336	910.8227216050268	2139.051235129863	1004.707571572023	790.0468192452652	1852.706095758895	41.59737900483292	930.0007129159073	1812.346596742914	50.10940549965477	822.1634488761704	2045.226636435755	1002.555898602351	893.9926756960219	1818.984358003901	223.5816872800295	836.0957374571079	1781.867622709411	253.6740331523777	864.2867532112988	1857.806800588399	291.0927244453065	815.6655880604411	1820.181788454199	321.1778798196175	839.9979902195637	2034.361062881282	591.3110713111597	778.9504806150812	1969.768357954554	600.7865151080125	811.2678852158781	2042.716033248016	699.3027578611603	767.0828140790248	1983.50255144411	708.8409900012442	802.8948542357588	2209.110214294356	936.1892462025262	1037.112628355304	2112.956016576908	138.5894611986649	1021.272200366058	1939.552217612056	212.7140587297186	985.2832543167093	1968.54459656169	215.5205477595202	1029.882204205574	1974.299809133386	241.6283344237985	987.202093600668	2157.889269938565	1007.634349999411	1084.389978254716	2114.293402160117	88.602955360349	977.6378844357946	2072.409699708945	105.3135571986993	1079.50973068949	2048.814021964942	1001.363059921801	998.0188237522451	2091.58063555314	298.4326658288389	1052.677481855615	2061.933059730307	324.73351311669	1019.528321753566	2139.323795488473	368.1532559139886	1061.86516847829	2106.020063366716	392.0446634106259	1027.882624640987	2261.657610334441	610.6152792428561	1087.010685509516	2208.852786493594	581.3239992476211	1048.73827717391	2199.245726898203	699.3023112924311	1107.560287291706	2147.066712964448	669.6443251635881	1074.098671953226	
2252	15.00666666666667	2196.211167189747	924.6501023827789	840.3090727750821	1657.263229485803	148.9590128167251	913.5590334967826	1684.404150993189	147.5908833318134	865.3453570130297	1689.429186610012	179.1507036457682	907.6160560246458	2143.203833700762	1008.349301138574	790.6734791077283	1832.909807617759	44.21866880014539	928.3850136620213	1792.497157872816	52.86712873704602	820.7918470992142	2047.444966573994	1006.631923582472	893.5294570700761	1804.015042084342	231.9455828716169	832.4724837482403	1767.534930996909	261.3496190358074	862.2976905193287	1842.353741903756	299.8931459966045	812.6876722208827	1805.365636499423	329.338542136812	838.7125087394733	2024.090508619817	598.9171560833792	777.8130877300064	1960.183986854294	610.5803350442651	810.742009120252	2036.469241121727	706.5347792591422	766.7046753580477	1977.947787943112	718.06509197963	803.1198391000067	2209.780202753181	941.4788852679717	1038.250235315209	2143.574110330713	132.4107201434954	1019.807153428356	1964.79842304411	191.7240174398926	982.0229249851669	1992.936262727607	197.1195275787153	1026.854872306881	1996.995239955596	223.4739074679431	984.1198714719231	2158.643741209647	1014.233850086448	1084.908064485309	2149.698242179354	82.53902978464397	976.4562938143849	2105.357917111725	96.12272224881825	1077.901248342061	2050.127103004358	1006.346014412665	997.7582307116112	2109.608742008041	289.6553713015502	1050.820102613869	2078.322627044193	313.7130024232407	1017.444181552947	2151.976477292098	362.7718076808923	1060.482593211634	2117.244565834759	384.1416422325779	1026.175690246595	2263.303213710312	617.02553114054	1086.502570841679	2210.348686573256	587.497444959136	1048.707546911707	2200.700351988117	705.4369534867064	1107.423572391331	2148.527530666287	675.7867758308731	1073.98562827409	
2253	15.01333333333333	2197.965927773193	927.1293849412561	841.4975722393466	1644.10981982837	162.3471176395684	910.4568334930229	1671.241025473264	158.5777604965679	862.2621269767795	1677.961318406137	190.5003528766372	903.990015436493	2147.341831444529	1011.657314095664	791.261122666654	1813.751432496326	47.50948162817858	926.5041492412652	1773.351056834269	56.37462433267886	819.2195526554742	2049.588112510811	1010.37006299278	893.0243368396191	1789.897083122964	240.4872890192666	828.7675255349823	1753.907840641548	269.2170729056703	859.9953196319595	1827.785541259139	308.8761301976557	809.6722842535521	1791.326981345081	337.684672590361	837.1964380765927	2014.174191536726	606.7317335987998	776.8452506369089	1951.10565865634	620.4857289689506	810.5255744451782	2030.467189421734	713.839798784076	766.4472223440256	1972.795543327126	727.2647623006221	803.6363596343757	2210.439179129808	946.2938982643741	1039.366064792295	2174.460223226778	127.3197460869069	1018.15973201825	1991.587884491865	171.3881605140289	978.7903930128867	2018.708803886666	179.3047346244668	1023.817567488522	2020.970375471873	205.74980610538	981.0361292171734	2159.154730769204	1020.251841986591	1085.381739794112	2185.329848484952	77.95513820169255	975.1304425123449	2138.952004147633	88.22987992760855	1076.20184707093	2051.460116694031	1010.883341084749	997.4184253030277	2128.159030024045	280.8697296061793	1049.044122553598	2095.406317581198	302.6332089583683	1015.486887228367	2164.909566144775	356.9298598240954	1059.290137081957	2128.939736746634	375.7543158936647	1024.685687906395	2264.128857546167	622.3707738454611	1086.058840386785	2210.871693879289	592.690397212386	1048.928888138148	2201.697092334138	710.7818604210785	1107.198061397986	2149.377573330087	681.2254997896558	1073.972111758506	
2254	15.02	2199.594603578621	929.3613751125068	842.5265895023178	1631.672532132744	175.9207369384707	906.8112506885692	1658.820386647955	169.8984235200728	858.7285255152308	1667.069431834695	202.0504141194988	899.9644682555115	2151.363263382245	1014.602460679399	791.7904815272589	1795.160603490854	51.55428975399531	924.3828093511099	1754.954866632163	60.71927328610517	817.429478550546	2051.597483790953	1013.751979428063	892.5059358334732	1776.595764683497	249.1496898911424	825.0539327247717	1740.926349993827	277.2867767152803	857.3601602625826	1814.146962222492	317.9380961383554	806.6743219532489	1778.078642099323	346.1799306996912	835.3960320244607	2004.733376020417	614.6150822649814	776.1048840038453	1942.636674094507	630.3558944272409	810.6525180523163	2024.804109723131	721.0944233728652	766.3340549950429	1968.114654376605	736.3057373762567	804.4404698478319	2211.077261583116	950.5509138193195	1040.391930813899	2205.437184474866	123.4396122058372	1016.316219718167	2019.795113981664	151.9767919032924	975.6596711845672	2045.774179731167	162.2918404181888	1020.841490693934	2046.125609268596	188.6884332097052	978.0480330943601	2159.418983164657	1025.541331195779	1085.797769884908	2220.913186966007	75.01545678190382	973.5793589289835	2173.021495734861	81.75435775830138	1074.354439936456	2052.778396539782	1014.920566023786	997.0235913016671	2147.169102847283	272.2082039549727	1047.393682174458	2113.123168091997	291.660333099564	1013.70653341509	2178.114931626848	350.7235030480899	1058.33843793353	2141.094457055526	367.01273020998	1023.477569120817	2264.182844483183	626.5782155671943	1085.71401655601	2210.488199328458	596.829292056593	1049.404137327028	2202.24513622888	715.2449488013352	1106.922995148941	2149.640459731238	685.8467059713926	1074.097981627401	
